<svg version="1.1" id="Layer_1" xmlns="http://www.w3.org/2000/svg" xmlns:xlink="http://www.w3.org/1999/xlink" x="0px" y="0px"
	 width="100%" viewBox="0 0 1931 1978" enable-background="new 0 0 1931 1978" xml:space="preserve">
<path fill="#28220B" opacity="1.000000" stroke="none" 
	d="
M905.000000,1.000006 
	C945.687561,1.000000 986.375183,1.000000 1027.687744,1.355454 
	C1033.480835,2.457834 1038.633911,3.336195 1043.819702,3.928775 
	C1065.431030,6.398258 1087.139160,8.187889 1108.650024,11.332746 
	C1142.906494,16.340998 1176.739380,23.572886 1210.218628,32.502998 
	C1245.975220,42.040539 1281.067505,53.562553 1315.416260,67.260612 
	C1347.113037,79.901039 1378.492920,93.374878 1408.231323,110.214691 
	C1434.575317,125.132401 1460.902954,140.147491 1486.525269,156.253250 
	C1516.114502,174.852570 1544.331299,195.528549 1570.868042,218.327194 
	C1591.280151,235.863953 1611.650513,253.497925 1631.189331,271.987030 
	C1646.518066,286.492310 1660.843384,302.101501 1675.064331,317.721008 
	C1688.256104,332.210236 1701.167847,347.003815 1713.405518,362.301270 
	C1735.866699,390.378387 1757.278442,419.294708 1775.893799,450.087036 
	C1791.723511,476.271545 1807.403809,502.614349 1821.616089,529.692383 
	C1841.821777,568.189453 1858.705688,608.229370 1873.329956,649.225830 
	C1885.092163,682.198914 1895.533203,715.570679 1903.478638,749.631042 
	C1909.670288,776.172607 1914.842896,802.979980 1919.549438,829.830322 
	C1922.843872,848.624573 1924.809692,867.665527 1926.947510,886.643799 
	C1928.359253,899.175781 1928.975952,911.796143 1930.095825,924.363892 
	C1930.207886,925.622498 1931.340820,926.790161 1932.000000,928.000000 
	C1932.000000,969.020935 1932.000000,1010.041809 1931.644043,1051.689087 
	C1930.535400,1058.316406 1929.683838,1064.307007 1929.047852,1070.320435 
	C1926.917358,1090.462891 1925.447266,1110.694824 1922.654907,1130.743652 
	C1917.490845,1167.823730 1910.928467,1204.714233 1900.681885,1240.750122 
	C1891.398560,1273.398315 1881.864624,1306.047241 1870.564331,1338.032837 
	C1854.082031,1384.685791 1833.974609,1429.886597 1809.429565,1472.937500 
	C1795.999878,1496.492432 1782.233154,1519.892700 1767.636353,1542.735107 
	C1748.636841,1572.467407 1727.837280,1600.984619 1704.789673,1627.749878 
	C1687.553345,1647.766113 1670.120239,1667.629761 1652.228638,1687.058594 
	C1642.323364,1697.814819 1631.465454,1707.720703 1620.731689,1717.680664 
	C1606.723511,1730.678955 1592.918091,1743.972778 1578.108765,1756.011597 
	C1557.997314,1772.360474 1537.248901,1787.956055 1516.360229,1803.312378 
	C1478.184814,1831.376831 1437.614258,1855.706299 1395.179932,1876.633057 
	C1365.960938,1891.042358 1336.009155,1904.129395 1305.746582,1916.207764 
	C1281.206543,1926.002319 1255.906860,1934.044067 1230.600342,1941.731689 
	C1194.911499,1952.573364 1158.497803,1960.605347 1121.660767,1966.537720 
	C1104.604004,1969.284546 1087.499023,1971.820312 1070.344238,1973.842896 
	C1057.164062,1975.396606 1043.867676,1975.952637 1030.635254,1977.096069 
	C1029.378174,1977.204712 1028.209595,1978.340698 1027.000000,1979.000000 
	C986.979126,1979.000000 946.958191,1979.000000 906.311523,1978.644287 
	C904.654663,1977.869019 903.648987,1977.168335 902.588684,1977.072754 
	C890.849792,1976.012817 879.034119,1975.547119 867.370972,1973.955444 
	C839.390747,1970.136475 811.315369,1966.682251 783.581238,1961.469360 
	C740.360413,1953.345703 698.028931,1941.592529 656.479187,1927.048462 
	C611.934631,1911.456177 568.370544,1893.557373 526.990784,1870.825439 
	C499.741547,1855.855835 472.821136,1840.201172 446.466278,1823.713867 
	C418.682587,1806.332764 392.110474,1787.064331 367.187042,1765.717896 
	C344.983246,1746.700562 322.646271,1727.767334 301.493988,1707.615356 
	C283.574738,1690.543213 266.799713,1672.193726 250.378311,1653.648071 
	C234.639450,1635.873291 219.295197,1617.651733 205.073624,1598.656128 
	C188.236435,1576.166992 171.850266,1553.223755 156.983246,1529.406982 
	C139.994705,1502.191650 124.134468,1474.198486 109.168030,1445.813477 
	C91.460365,1412.229492 76.800659,1377.198853 63.602093,1341.561523 
	C50.923000,1307.326904 39.636986,1272.640869 31.208515,1237.153198 
	C24.334398,1208.209839 18.637815,1178.957764 13.376387,1149.670654 
	C10.003549,1130.896362 8.159582,1111.833130 6.029483,1092.854614 
	C4.641467,1080.487915 4.018159,1068.036377 2.904496,1055.636108 
	C2.791444,1054.377197 1.659247,1053.209839 0.999996,1052.000000 
	C1.000000,1010.979126 1.000000,969.958191 1.356110,928.311157 
	C2.458807,921.849426 3.316909,916.025513 3.931761,910.176025 
	C6.049226,890.031311 7.005476,869.695251 10.383913,849.767639 
	C16.329269,814.699097 22.324413,779.526062 30.927780,745.052917 
	C39.459187,710.868103 50.248650,677.147827 61.894245,643.870056 
	C71.441460,616.588440 83.123466,589.997498 94.948341,563.588074 
	C103.710045,544.019897 113.673851,524.930908 124.095146,506.180298 
	C136.131454,484.523865 148.752548,463.152466 162.031998,442.236481 
	C180.677612,412.868500 200.921448,384.560242 223.438232,358.006897 
	C241.596710,336.593140 260.096680,315.450165 279.018677,294.710358 
	C288.983429,283.788300 299.966492,273.758606 310.864868,263.733734 
	C326.392059,249.451126 341.699677,234.841019 358.123810,221.643570 
	C381.434357,202.912659 405.100983,184.513596 429.642731,167.450211 
	C475.372559,135.655182 523.558105,107.880096 574.763306,85.809624 
	C604.391724,73.039169 634.410889,61.039337 664.778564,50.155487 
	C700.210510,37.456566 736.624329,27.706470 773.583008,20.544325 
	C801.301392,15.172861 829.286926,11.093883 857.246460,7.088241 
	C871.851807,4.995795 886.661682,4.342911 901.366150,2.907044 
	C902.627502,2.783872 903.791016,1.659363 905.000000,1.000006 
M732.635132,1515.903442 
	C745.496155,1520.899902 758.809448,1522.368530 772.378113,1520.226196 
	C782.224915,1518.671631 791.968201,1516.448608 801.741638,1514.444946 
	C810.778076,1512.592285 815.456543,1515.511841 816.148499,1524.573730 
	C816.600342,1530.490845 815.931213,1536.521240 815.454346,1542.476074 
	C814.406006,1555.568726 812.456604,1568.631592 812.200500,1581.732666 
	C811.959167,1594.082275 818.289612,1602.051270 828.621094,1603.550293 
	C844.780579,1605.894775 858.332825,1601.885742 855.098022,1580.022095 
	C853.981323,1572.474243 852.129028,1565.023560 850.375610,1557.584351 
	C847.247742,1544.314209 843.113464,1531.232544 843.873840,1517.325195 
	C844.584229,1504.333618 850.813843,1495.406494 863.020569,1490.734253 
	C865.811401,1489.666016 868.714172,1488.809692 871.359497,1487.453979 
	C896.672241,1474.482910 922.133667,1461.781372 947.135620,1448.233398 
	C958.618835,1442.010864 960.741394,1444.873291 962.990417,1456.540405 
	C963.053162,1456.865967 963.078796,1457.203247 963.081665,1457.535400 
	C963.224121,1473.843750 963.616455,1490.154907 963.442932,1506.459961 
	C963.162781,1532.780518 962.150879,1559.097290 962.172852,1585.415161 
	C962.183167,1597.707275 963.597412,1610.094238 968.902405,1621.505859 
	C975.312622,1635.295044 991.646912,1636.649780 999.919250,1623.812988 
	C1002.892456,1619.199219 1004.810425,1613.563843 1005.888550,1608.132446 
	C1009.504822,1589.914429 1007.853638,1571.561035 1005.449280,1553.389404 
	C1001.475464,1523.355469 996.431641,1493.460083 992.677795,1463.401611 
	C991.247314,1451.946899 991.755188,1440.187744 992.229553,1428.602295 
	C992.344238,1425.800659 995.302002,1421.512573 997.855286,1420.681396 
	C1011.415833,1416.266602 1022.649353,1407.947754 1034.524414,1400.605713 
	C1042.266846,1395.818726 1050.241821,1391.122681 1058.671875,1387.808838 
	C1068.159058,1384.079346 1075.109253,1387.954590 1076.812012,1398.022949 
	C1078.377930,1407.281494 1078.626587,1416.889160 1078.328613,1426.307373 
	C1077.865479,1440.950806 1075.749512,1455.559692 1075.661987,1470.191162 
	C1075.595947,1481.225586 1076.413208,1492.561890 1079.001099,1503.239380 
	C1082.150024,1516.231689 1094.419556,1521.505005 1107.067261,1517.037720 
	C1116.795044,1513.601562 1119.891968,1505.260986 1119.847046,1496.371216 
	C1119.769165,1480.924927 1118.716797,1465.454956 1117.413940,1450.050537 
	C1115.643677,1429.122192 1113.222534,1408.249878 1116.993042,1387.299927 
	C1121.042114,1364.803711 1131.969849,1347.094360 1153.153687,1337.167725 
	C1187.785278,1320.939331 1222.576660,1305.050415 1257.368408,1289.166870 
	C1265.436890,1285.483521 1272.458618,1287.637817 1276.239258,1295.758057 
	C1279.352539,1302.444946 1281.676270,1309.763794 1282.843140,1317.044189 
	C1286.762573,1341.500854 1286.344971,1366.200195 1285.502441,1390.861450 
	C1284.034668,1433.828491 1282.117188,1476.781738 1280.912476,1519.755493 
	C1280.137573,1547.406860 1280.286133,1575.094604 1285.036377,1602.493286 
	C1287.090454,1614.340576 1289.867310,1626.030273 1297.115112,1636.006836 
	C1303.975586,1645.450439 1314.491699,1648.477051 1324.945068,1644.196289 
	C1333.765625,1640.583984 1338.661499,1633.181396 1340.556396,1624.619995 
	C1343.202026,1612.667969 1345.304932,1600.406738 1345.794678,1588.203735 
	C1347.027710,1557.483765 1342.953125,1527.015015 1339.756592,1496.528442 
	C1334.964600,1450.823242 1329.878540,1405.144531 1325.637085,1359.387939 
	C1323.791016,1339.472412 1324.602539,1319.441772 1327.942505,1299.594116 
	C1332.083130,1274.989380 1342.598389,1256.510498 1370.285522,1253.415405 
	C1376.097534,1252.765625 1381.761841,1250.796143 1388.738281,1249.139282 
	C1388.250122,1254.486816 1388.148682,1258.586792 1387.462524,1262.586304 
	C1384.790405,1278.162720 1380.703247,1293.613281 1382.085571,1309.582275 
	C1382.533447,1314.756470 1383.932617,1320.158447 1386.232056,1324.793823 
	C1390.274780,1332.943970 1401.005127,1336.834839 1410.929077,1334.785400 
	C1418.543335,1333.213135 1422.827148,1327.603516 1423.730225,1317.284912 
	C1424.090942,1313.164917 1424.074951,1308.911987 1423.482666,1304.828003 
	C1421.979126,1294.459229 1419.954346,1284.167114 1418.328857,1273.814453 
	C1417.116577,1266.093872 1415.755859,1258.353394 1415.286133,1250.572144 
	C1414.860229,1243.515625 1416.824951,1241.595093 1423.602539,1239.753784 
	C1440.295410,1235.218994 1456.844849,1230.036621 1473.714478,1226.298950 
	C1502.118652,1220.005737 1523.911133,1204.139282 1541.688354,1181.889160 
	C1562.769287,1155.504395 1567.873901,1126.306030 1555.996582,1094.665527 
	C1548.919678,1075.812988 1535.439087,1066.933350 1515.427368,1068.187012 
	C1500.682129,1069.110962 1485.890137,1070.916260 1471.381836,1073.699341 
	C1422.177856,1083.137817 1375.370728,1100.913330 1328.533447,1117.846069 
	C1289.350952,1132.011353 1251.519531,1150.016968 1213.436768,1167.095825 
	C1163.958008,1189.285522 1114.565796,1211.720459 1067.590210,1239.017822 
	C1021.688965,1265.691040 975.810242,1292.400635 927.922852,1315.451538 
	C905.408447,1326.288940 882.641724,1336.441650 858.242371,1342.346680 
	C846.122681,1345.279907 835.145813,1342.815308 825.483521,1334.799561 
	C817.591919,1328.252808 811.641052,1320.322876 808.988098,1310.345947 
	C806.383179,1300.549438 803.249084,1290.740112 802.107422,1280.735352 
	C797.690735,1242.029663 793.528992,1203.282715 790.139954,1164.475464 
	C787.328613,1132.282837 785.799316,1099.979492 783.586243,1067.733276 
	C781.122314,1031.831665 778.606384,995.933350 775.963562,960.044617 
	C773.981567,933.130859 771.746399,906.235718 769.653625,879.330017 
	C766.734192,841.798096 763.763367,804.269897 760.984924,766.727478 
	C760.106628,754.860168 759.774048,742.952454 759.191711,731.063232 
	C757.934875,731.596375 757.512024,732.255981 757.173828,732.956482 
	C718.188599,813.710205 679.201416,894.463074 640.285950,975.250427 
	C639.464905,976.954834 639.050903,979.086243 639.168274,980.973572 
	C639.829895,991.614319 640.790405,1002.236023 641.505066,1012.873901 
	C643.705200,1045.620605 646.213440,1078.352539 647.907898,1111.125977 
	C650.118896,1153.890259 651.440918,1196.700073 653.565186,1239.469482 
	C655.432922,1277.074585 657.530640,1314.675415 660.171997,1352.232788 
	C662.568909,1386.313721 666.588806,1420.289551 676.263733,1453.155273 
	C680.746826,1468.384155 683.865601,1483.423462 682.714905,1499.257202 
	C680.311829,1532.321899 677.813354,1565.380005 675.520264,1598.452271 
	C673.548523,1626.890503 671.904541,1655.356445 675.046875,1683.815674 
	C676.383057,1695.916260 678.252625,1707.976196 685.152527,1718.469238 
	C689.623474,1725.268433 695.910828,1728.957764 704.203125,1727.867920 
	C711.960999,1726.848511 716.215393,1721.376831 718.057983,1714.448975 
	C719.926331,1707.424316 721.975098,1700.057129 721.700500,1692.926392 
	C720.868469,1671.324463 719.708923,1649.678223 717.267578,1628.209473 
	C713.976807,1599.270996 709.123840,1570.513062 705.483765,1541.609375 
	C704.389587,1532.920288 704.604431,1523.973999 705.124573,1515.199219 
	C705.671509,1505.972656 710.358765,1504.072754 718.095337,1508.752075 
	C722.482300,1511.405640 727.292297,1513.359741 732.635132,1515.903442 
M669.406128,595.952759 
	C695.450989,542.027466 721.522034,488.114777 747.459900,434.138092 
	C748.696045,431.565796 749.365906,428.406006 749.266357,425.555908 
	C748.242737,396.248627 747.152649,366.941742 745.742432,337.651062 
	C745.295654,328.370544 745.373291,318.624054 742.486755,310.002899 
	C737.920410,296.364746 731.733459,283.138153 724.993835,270.392212 
	C716.775818,254.850250 705.051575,242.194275 689.429016,233.462540 
	C668.095459,221.538818 646.406982,223.683884 624.197510,230.750595 
	C591.327576,241.209290 571.971069,262.724335 569.830872,297.543793 
	C567.786743,330.799530 568.149170,363.828888 575.601868,396.869019 
	C586.916748,447.031616 595.563843,497.783875 601.131592,548.962463 
	C605.453918,588.692322 609.224304,628.482605 613.141663,668.255737 
	C614.320251,680.222290 615.169128,692.221375 616.169006,704.205505 
	C616.482544,704.254761 616.796021,704.303955 617.109497,704.353210 
	C634.434326,668.444763 651.759216,632.536316 669.406128,595.952759 
M631.379028,754.781372 
	C619.079468,771.285706 622.583557,789.554016 624.884583,808.925171 
	C625.864014,807.236023 626.226990,806.695312 626.507324,806.114624 
	C668.018066,720.142822 709.525635,634.169556 751.003540,548.181946 
	C751.715637,546.705627 752.496033,545.058289 752.512756,543.483032 
	C752.638916,531.603821 752.581604,519.722656 752.581604,507.842133 
	C751.958679,507.765350 751.335815,507.688599 750.712891,507.611816 
	C711.060242,589.786133 671.407532,671.960449 631.379028,754.781372 
M638.405151,898.950745 
	C676.891602,819.253662 715.382019,739.558472 753.838440,659.846802 
	C754.691833,658.078003 755.683228,656.130737 755.715332,654.251404 
	C755.896240,643.684875 755.802551,633.113647 755.802551,622.544067 
	C755.252075,622.495789 754.701538,622.447449 754.151062,622.399170 
	C753.591248,623.339111 752.956360,624.242737 752.482361,625.224121 
	C712.400085,708.210571 672.323608,791.199707 632.305969,874.217285 
	C631.471985,875.947449 630.829956,878.042786 630.948792,879.913696 
	C631.536560,889.160583 632.410828,898.389221 633.195374,907.759155 
	C633.764526,907.479614 634.185547,907.416199 634.299255,907.195007 
	C635.588623,904.685303 636.831177,902.151489 638.405151,898.950745 
z"/>
<path fill="#000000" opacity="1.000000" stroke="none" 
	d="
M0.999996,1052.468628 
	C1.659247,1053.209839 2.791444,1054.377197 2.904496,1055.636108 
	C4.018159,1068.036377 4.641467,1080.487915 6.029483,1092.854614 
	C8.159582,1111.833130 10.003549,1130.896362 13.376387,1149.670654 
	C18.637815,1178.957764 24.334398,1208.209839 31.208515,1237.153198 
	C39.636986,1272.640869 50.923000,1307.326904 63.602093,1341.561523 
	C76.800659,1377.198853 91.460365,1412.229492 109.168030,1445.813477 
	C124.134468,1474.198486 139.994705,1502.191650 156.983246,1529.406982 
	C171.850266,1553.223755 188.236435,1576.166992 205.073624,1598.656128 
	C219.295197,1617.651733 234.639450,1635.873291 250.378311,1653.648071 
	C266.799713,1672.193726 283.574738,1690.543213 301.493988,1707.615356 
	C322.646271,1727.767334 344.983246,1746.700562 367.187042,1765.717896 
	C392.110474,1787.064331 418.682587,1806.332764 446.466278,1823.713867 
	C472.821136,1840.201172 499.741547,1855.855835 526.990784,1870.825439 
	C568.370544,1893.557373 611.934631,1911.456177 656.479187,1927.048462 
	C698.028931,1941.592529 740.360413,1953.345703 783.581238,1961.469360 
	C811.315369,1966.682251 839.390747,1970.136475 867.370972,1973.955444 
	C879.034119,1975.547119 890.849792,1976.012817 902.588684,1977.072754 
	C903.648987,1977.168335 904.654663,1977.869019 905.842896,1978.644287 
	C604.405334,1979.000000 302.810699,1979.000000 1.000000,1979.000000 
	C1.000000,1670.312500 1.000000,1361.624878 0.999996,1052.468628 
z"/>
<path fill="#000000" opacity="1.000000" stroke="none" 
	d="
M1027.468506,1979.000000 
	C1028.209595,1978.340698 1029.378174,1977.204712 1030.635254,1977.096069 
	C1043.867676,1975.952637 1057.164062,1975.396606 1070.344238,1973.842896 
	C1087.499023,1971.820312 1104.604004,1969.284546 1121.660767,1966.537720 
	C1158.497803,1960.605347 1194.911499,1952.573364 1230.600342,1941.731689 
	C1255.906860,1934.044067 1281.206543,1926.002319 1305.746582,1916.207764 
	C1336.009155,1904.129395 1365.960938,1891.042358 1395.179932,1876.633057 
	C1437.614258,1855.706299 1478.184814,1831.376831 1516.360229,1803.312378 
	C1537.248901,1787.956055 1557.997314,1772.360474 1578.108765,1756.011597 
	C1592.918091,1743.972778 1606.723511,1730.678955 1620.731689,1717.680664 
	C1631.465454,1707.720703 1642.323364,1697.814819 1652.228638,1687.058594 
	C1670.120239,1667.629761 1687.553345,1647.766113 1704.789673,1627.749878 
	C1727.837280,1600.984619 1748.636841,1572.467407 1767.636353,1542.735107 
	C1782.233154,1519.892700 1795.999878,1496.492432 1809.429565,1472.937500 
	C1833.974609,1429.886597 1854.082031,1384.685791 1870.564331,1338.032837 
	C1881.864624,1306.047241 1891.398560,1273.398315 1900.681885,1240.750122 
	C1910.928467,1204.714233 1917.490845,1167.823730 1922.654907,1130.743652 
	C1925.447266,1110.694824 1926.917358,1090.462891 1929.047852,1070.320435 
	C1929.683838,1064.307007 1930.535400,1058.316406 1931.644043,1052.157715 
	C1932.000000,1360.926270 1932.000000,1669.852417 1932.000000,1979.000000 
	C1630.645752,1979.000000 1329.291504,1979.000000 1027.468506,1979.000000 
z"/>
<path fill="#000000" opacity="1.000000" stroke="none" 
	d="
M904.531372,1.000006 
	C903.791016,1.659363 902.627502,2.783872 901.366150,2.907044 
	C886.661682,4.342911 871.851807,4.995795 857.246460,7.088241 
	C829.286926,11.093883 801.301392,15.172861 773.583008,20.544325 
	C736.624329,27.706470 700.210510,37.456566 664.778564,50.155487 
	C634.410889,61.039337 604.391724,73.039169 574.763306,85.809624 
	C523.558105,107.880096 475.372559,135.655182 429.642731,167.450211 
	C405.100983,184.513596 381.434357,202.912659 358.123810,221.643570 
	C341.699677,234.841019 326.392059,249.451126 310.864868,263.733734 
	C299.966492,273.758606 288.983429,283.788300 279.018677,294.710358 
	C260.096680,315.450165 241.596710,336.593140 223.438232,358.006897 
	C200.921448,384.560242 180.677612,412.868500 162.031998,442.236481 
	C148.752548,463.152466 136.131454,484.523865 124.095146,506.180298 
	C113.673851,524.930908 103.710045,544.019897 94.948341,563.588074 
	C83.123466,589.997498 71.441460,616.588440 61.894245,643.870056 
	C50.248650,677.147827 39.459187,710.868103 30.927780,745.052917 
	C22.324413,779.526062 16.329269,814.699097 10.383913,849.767639 
	C7.005476,869.695251 6.049226,890.031311 3.931761,910.176025 
	C3.316909,916.025513 2.458807,921.849426 1.356110,927.842529 
	C1.000000,619.073792 1.000000,310.147644 1.000000,1.000000 
	C302.020844,1.000000 603.041748,1.000000 904.531372,1.000006 
z"/>
<path fill="#000000" opacity="1.000000" stroke="none" 
	d="
M1932.000000,927.531372 
	C1931.340820,926.790161 1930.207886,925.622498 1930.095825,924.363892 
	C1928.975952,911.796143 1928.359253,899.175781 1926.947510,886.643799 
	C1924.809692,867.665527 1922.843872,848.624573 1919.549438,829.830322 
	C1914.842896,802.979980 1909.670288,776.172607 1903.478638,749.631042 
	C1895.533203,715.570679 1885.092163,682.198914 1873.329956,649.225830 
	C1858.705688,608.229370 1841.821777,568.189453 1821.616089,529.692383 
	C1807.403809,502.614349 1791.723511,476.271545 1775.893799,450.087036 
	C1757.278442,419.294708 1735.866699,390.378387 1713.405518,362.301270 
	C1701.167847,347.003815 1688.256104,332.210236 1675.064331,317.721008 
	C1660.843384,302.101501 1646.518066,286.492310 1631.189331,271.987030 
	C1611.650513,253.497925 1591.280151,235.863953 1570.868042,218.327194 
	C1544.331299,195.528549 1516.114502,174.852570 1486.525269,156.253250 
	C1460.902954,140.147491 1434.575317,125.132401 1408.231323,110.214691 
	C1378.492920,93.374878 1347.113037,79.901039 1315.416260,67.260612 
	C1281.067505,53.562553 1245.975220,42.040539 1210.218628,32.502998 
	C1176.739380,23.572886 1142.906494,16.340998 1108.650024,11.332746 
	C1087.139160,8.187889 1065.431030,6.398258 1043.819702,3.928775 
	C1038.633911,3.336195 1033.480835,2.457834 1028.156250,1.355454 
	C1329.261353,1.000000 1630.522705,1.000000 1932.000000,1.000000 
	C1932.000000,309.687531 1932.000000,618.375122 1932.000000,927.531372 
z"/>
<path fill="#FED42A" opacity="1.000000" stroke="none" 
	d="
M732.273438,1515.766113 
	C727.292297,1513.359741 722.482300,1511.405640 718.095337,1508.752075 
	C710.358765,1504.072754 705.671509,1505.972656 705.124573,1515.199219 
	C704.604431,1523.973999 704.389587,1532.920288 705.483765,1541.609375 
	C709.123840,1570.513062 713.976807,1599.270996 717.267578,1628.209473 
	C719.708923,1649.678223 720.868469,1671.324463 721.700500,1692.926392 
	C721.975098,1700.057129 719.926331,1707.424316 718.057983,1714.448975 
	C716.215393,1721.376831 711.960999,1726.848511 704.203125,1727.867920 
	C695.910828,1728.957764 689.623474,1725.268433 685.152527,1718.469238 
	C678.252625,1707.976196 676.383057,1695.916260 675.046875,1683.815674 
	C671.904541,1655.356445 673.548523,1626.890503 675.520264,1598.452271 
	C677.813354,1565.380005 680.311829,1532.321899 682.714905,1499.257202 
	C683.865601,1483.423462 680.746826,1468.384155 676.263733,1453.155273 
	C666.588806,1420.289551 662.568909,1386.313721 660.171997,1352.232788 
	C657.530640,1314.675415 655.432922,1277.074585 653.565186,1239.469482 
	C651.440918,1196.700073 650.118896,1153.890259 647.907898,1111.125977 
	C646.213440,1078.352539 643.705200,1045.620605 641.505066,1012.873901 
	C640.790405,1002.236023 639.829895,991.614319 639.168274,980.973572 
	C639.050903,979.086243 639.464905,976.954834 640.285950,975.250427 
	C679.201416,894.463074 718.188599,813.710205 757.173828,732.956482 
	C757.512024,732.255981 757.934875,731.596375 759.191711,731.063232 
	C759.774048,742.952454 760.106628,754.860168 760.984924,766.727478 
	C763.763367,804.269897 766.734192,841.798096 769.653625,879.330017 
	C771.746399,906.235718 773.981567,933.130859 775.963562,960.044617 
	C778.606384,995.933350 781.122314,1031.831665 783.586243,1067.733276 
	C785.799316,1099.979492 787.328613,1132.282837 790.139954,1164.475464 
	C793.528992,1203.282715 797.690735,1242.029663 802.107422,1280.735352 
	C803.249084,1290.740112 806.383179,1300.549438 808.988098,1310.345947 
	C811.641052,1320.322876 817.591919,1328.252808 825.483521,1334.799561 
	C835.145813,1342.815308 846.122681,1345.279907 858.242371,1342.346680 
	C882.641724,1336.441650 905.408447,1326.288940 927.922852,1315.451538 
	C975.810242,1292.400635 1021.688965,1265.691040 1067.590210,1239.017822 
	C1114.565796,1211.720459 1163.958008,1189.285522 1213.436768,1167.095825 
	C1251.519531,1150.016968 1289.350952,1132.011353 1328.533447,1117.846069 
	C1375.370728,1100.913330 1422.177856,1083.137817 1471.381836,1073.699341 
	C1485.890137,1070.916260 1500.682129,1069.110962 1515.427368,1068.187012 
	C1535.439087,1066.933350 1548.919678,1075.812988 1555.996582,1094.665527 
	C1567.873901,1126.306030 1562.769287,1155.504395 1541.688354,1181.889160 
	C1523.911133,1204.139282 1502.118652,1220.005737 1473.714478,1226.298950 
	C1456.844849,1230.036621 1440.295410,1235.218994 1423.602539,1239.753784 
	C1416.824951,1241.595093 1414.860229,1243.515625 1415.286133,1250.572144 
	C1415.755859,1258.353394 1417.116577,1266.093872 1418.328857,1273.814453 
	C1419.954346,1284.167114 1421.979126,1294.459229 1423.482666,1304.828003 
	C1424.074951,1308.911987 1424.090942,1313.164917 1423.730225,1317.284912 
	C1422.827148,1327.603516 1418.543335,1333.213135 1410.929077,1334.785400 
	C1401.005127,1336.834839 1390.274780,1332.943970 1386.232056,1324.793823 
	C1383.932617,1320.158447 1382.533447,1314.756470 1382.085571,1309.582275 
	C1380.703247,1293.613281 1384.790405,1278.162720 1387.462524,1262.586304 
	C1388.148682,1258.586792 1388.250122,1254.486816 1388.738281,1249.139282 
	C1381.761841,1250.796143 1376.097534,1252.765625 1370.285522,1253.415405 
	C1342.598389,1256.510498 1332.083130,1274.989380 1327.942505,1299.594116 
	C1324.602539,1319.441772 1323.791016,1339.472412 1325.637085,1359.387939 
	C1329.878540,1405.144531 1334.964600,1450.823242 1339.756592,1496.528442 
	C1342.953125,1527.015015 1347.027710,1557.483765 1345.794678,1588.203735 
	C1345.304932,1600.406738 1343.202026,1612.667969 1340.556396,1624.619995 
	C1338.661499,1633.181396 1333.765625,1640.583984 1324.945068,1644.196289 
	C1314.491699,1648.477051 1303.975586,1645.450439 1297.115112,1636.006836 
	C1289.867310,1626.030273 1287.090454,1614.340576 1285.036377,1602.493286 
	C1280.286133,1575.094604 1280.137573,1547.406860 1280.912476,1519.755493 
	C1282.117188,1476.781738 1284.034668,1433.828491 1285.502441,1390.861450 
	C1286.344971,1366.200195 1286.762573,1341.500854 1282.843140,1317.044189 
	C1281.676270,1309.763794 1279.352539,1302.444946 1276.239258,1295.758057 
	C1272.458618,1287.637817 1265.436890,1285.483521 1257.368408,1289.166870 
	C1222.576660,1305.050415 1187.785278,1320.939331 1153.153687,1337.167725 
	C1131.969849,1347.094360 1121.042114,1364.803711 1116.993042,1387.299927 
	C1113.222534,1408.249878 1115.643677,1429.122192 1117.413940,1450.050537 
	C1118.716797,1465.454956 1119.769165,1480.924927 1119.847046,1496.371216 
	C1119.891968,1505.260986 1116.795044,1513.601562 1107.067261,1517.037720 
	C1094.419556,1521.505005 1082.150024,1516.231689 1079.001099,1503.239380 
	C1076.413208,1492.561890 1075.595947,1481.225586 1075.661987,1470.191162 
	C1075.749512,1455.559692 1077.865479,1440.950806 1078.328613,1426.307373 
	C1078.626587,1416.889160 1078.377930,1407.281494 1076.812012,1398.022949 
	C1075.109253,1387.954590 1068.159058,1384.079346 1058.671875,1387.808838 
	C1050.241821,1391.122681 1042.266846,1395.818726 1034.524414,1400.605713 
	C1022.649353,1407.947754 1011.415833,1416.266602 997.855286,1420.681396 
	C995.302002,1421.512573 992.344238,1425.800659 992.229553,1428.602295 
	C991.755188,1440.187744 991.247314,1451.946899 992.677795,1463.401611 
	C996.431641,1493.460083 1001.475464,1523.355469 1005.449280,1553.389404 
	C1007.853638,1571.561035 1009.504822,1589.914429 1005.888550,1608.132446 
	C1004.810425,1613.563843 1002.892456,1619.199219 999.919250,1623.812988 
	C991.646912,1636.649780 975.312622,1635.295044 968.902405,1621.505859 
	C963.597412,1610.094238 962.183167,1597.707275 962.172852,1585.415161 
	C962.150879,1559.097290 963.162781,1532.780518 963.442932,1506.459961 
	C963.616455,1490.154907 963.224121,1473.843750 963.081665,1457.535400 
	C963.078796,1457.203247 963.053162,1456.865967 962.990417,1456.540405 
	C960.741394,1444.873291 958.618835,1442.010864 947.135620,1448.233398 
	C922.133667,1461.781372 896.672241,1474.482910 871.359497,1487.453979 
	C868.714172,1488.809692 865.811401,1489.666016 863.020569,1490.734253 
	C850.813843,1495.406494 844.584229,1504.333618 843.873840,1517.325195 
	C843.113464,1531.232544 847.247742,1544.314209 850.375610,1557.584351 
	C852.129028,1565.023560 853.981323,1572.474243 855.098022,1580.022095 
	C858.332825,1601.885742 844.780579,1605.894775 828.621094,1603.550293 
	C818.289612,1602.051270 811.959167,1594.082275 812.200500,1581.732666 
	C812.456604,1568.631592 814.406006,1555.568726 815.454346,1542.476074 
	C815.931213,1536.521240 816.600342,1530.490845 816.148499,1524.573730 
	C815.456543,1515.511841 810.778076,1512.592285 801.741638,1514.444946 
	C791.968201,1516.448608 782.224915,1518.671631 772.378113,1520.226196 
	C758.809448,1522.368530 745.496155,1520.899902 732.273438,1515.766113 
z"/>
<path fill="#FFD42A" opacity="1.000000" stroke="none" 
	d="
M669.245117,596.290283 
	C651.759216,632.536316 634.434326,668.444763 617.109497,704.353210 
	C616.796021,704.303955 616.482544,704.254761 616.169006,704.205505 
	C615.169128,692.221375 614.320251,680.222290 613.141663,668.255737 
	C609.224304,628.482605 605.453918,588.692322 601.131592,548.962463 
	C595.563843,497.783875 586.916748,447.031616 575.601868,396.869019 
	C568.149170,363.828888 567.786743,330.799530 569.830872,297.543793 
	C571.971069,262.724335 591.327576,241.209290 624.197510,230.750595 
	C646.406982,223.683884 668.095459,221.538818 689.429016,233.462540 
	C705.051575,242.194275 716.775818,254.850250 724.993835,270.392212 
	C731.733459,283.138153 737.920410,296.364746 742.486755,310.002899 
	C745.373291,318.624054 745.295654,328.370544 745.742432,337.651062 
	C747.152649,366.941742 748.242737,396.248627 749.266357,425.555908 
	C749.365906,428.406006 748.696045,431.565796 747.459900,434.138092 
	C721.522034,488.114777 695.450989,542.027466 669.245117,596.290283 
z"/>
<path fill="#FCD12A" opacity="1.000000" stroke="none" 
	d="
M631.566956,754.458008 
	C671.407532,671.960449 711.060242,589.786133 750.712891,507.611816 
	C751.335815,507.688599 751.958679,507.765350 752.581604,507.842133 
	C752.581604,519.722656 752.638916,531.603821 752.512756,543.483032 
	C752.496033,545.058289 751.715637,546.705627 751.003540,548.181946 
	C709.525635,634.169556 668.018066,720.142822 626.507324,806.114624 
	C626.226990,806.695312 625.864014,807.236023 624.884583,808.925171 
	C622.583557,789.554016 619.079468,771.285706 631.566956,754.458008 
z"/>
<path fill="#FBD129" opacity="1.000000" stroke="none" 
	d="
M638.245667,899.287476 
	C636.831177,902.151489 635.588623,904.685303 634.299255,907.195007 
	C634.185547,907.416199 633.764526,907.479614 633.195374,907.759155 
	C632.410828,898.389221 631.536560,889.160583 630.948792,879.913696 
	C630.829956,878.042786 631.471985,875.947449 632.305969,874.217285 
	C672.323608,791.199707 712.400085,708.210571 752.482361,625.224121 
	C752.956360,624.242737 753.591248,623.339111 754.151062,622.399170 
	C754.701538,622.447449 755.252075,622.495789 755.802551,622.544067 
	C755.802551,633.113647 755.896240,643.684875 755.715332,654.251404 
	C755.683228,656.130737 754.691833,658.078003 753.838440,659.846802 
	C715.382019,739.558472 676.891602,819.253662 638.245667,899.287476 
z"/>
</svg>